<!-- /assets/icons.svg -->
<svg xmlns="http://www.w3.org/2000/svg" >
  <!-- Cole aqui os SVGs OFICIAIS (de preferência do Simple Icons / sites oficiais) -->

<symbol id="react" viewBox="1.25 2.38 21.49 19.24" fill="currentColor" >
  <path d="M12,10.11A1.87,1.87,0,1,1,10.13,12,1.88,1.88,0,0,1,12,10.11M7.37,20c.63.38,2-.2,3.6-1.7a24.22,24.22,0,0,1-1.51-1.9A22.7,22.7,0,0,1,7.06,16c-.51,2.14-.32,3.61.31,4m.71-5.74-.29-.51a7.91,7.91,0,0,0-.29.86c.27.06.57.11.88.16l-.3-.51m6.54-.76.81-1.5-.81-1.5c-.3-.53-.62-1-.91-1.47C13.17,9,12.6,9,12,9s-1.17,0-1.71,0c-.29.47-.61.94-.91,1.47L8.57,12l.81,1.5c.3.53.62,1,.91,1.47.54,0,1.11,0,1.71,0s1.17,0,1.71,0c.29-.47.61-.94.91-1.47M12,6.78c-.19.22-.39.45-.59.72h1.18c-.2-.27-.4-.5-.59-.72m0,10.44c.19-.22.39-.45.59-.72H11.41c.2.27.4.5.59.72M16.62,4c-.62-.38-2,.2-3.59,1.7a24.22,24.22,0,0,1,1.51,1.9,22.7,22.7,0,0,1,2.4.36c.51-2.14.32-3.61-.32-4m-.7,5.74.29.51a7.91,7.91,0,0,0,.29-.86c-.27-.06-.57-.11-.88-.16l.3.51m1.45-7c1.47.84,1.63,3.05,1,5.63,2.54.75,4.37,2,4.37,3.68s-1.83,2.93-4.37,3.68c.62,2.58.46,4.79-1,5.63s-3.45-.12-5.37-1.95c-1.92,1.83-3.91,2.79-5.38,1.95s-1.62-3-1-5.63c-2.54-.75-4.37-2-4.37-3.68S3.08,9.07,5.62,8.32c-.62-2.58-.46-4.79,1-5.63s3.46.12,5.38,1.95c1.92-1.83,3.91-2.79,5.37-1.95M17.08,12A22.51,22.51,0,0,1,18,14.26c2.1-.63,3.28-1.53,3.28-2.26S20.07,10.37,18,9.74A22.51,22.51,0,0,1,17.08,12M6.92,12A22.51,22.51,0,0,1,6,9.74c-2.1.63-3.28,1.53-3.28,2.26S3.93,13.63,6,14.26A22.51,22.51,0,0,1,6.92,12m9,2.26-.3.51c.31,0,.61-.1.88-.16a7.91,7.91,0,0,0-.29-.86l-.29.51M13,18.3c1.59,1.5,3,2.08,3.59,1.7s.83-1.82.32-4a22.7,22.7,0,0,1-2.4.36A24.22,24.22,0,0,1,13,18.3M8.08,9.74l.3-.51c-.31,0-.61.1-.88.16a7.91,7.91,0,0,0,.29.86l.29-.51M11,5.7C9.38,4.2,8,3.62,7.37,4s-.82,1.82-.31,4a22.7,22.7,0,0,1,2.4-.36A24.22,24.22,0,0,1,11,5.7Z"></path>
</symbol>

<symbol id="photoshop" viewBox="0 0 485 485" fill="currentColor" >
  <g>
    <path d="M321.27,328.414c-16.269,0-37.082-7.252-47.173-13.307l-9.743,39.196c13.307,7.252,33.866,12.299,56.916,12.299
      c50.361,0,76.376-24.124,76.376-57.012c-0.379-25.891-14.412-42.887-47.932-54.333c-21.537-7.631-28.318-11.952-28.318-20.213
      c0-8.988,7.506-14.412,20.813-14.412c15.136,0,30.177,5.803,38.185,10.122l9.714-37.839c-10.817-5.424-29.168-10.091-49.76-10.091
      c-43.58,0-71.676,24.88-71.676,57.644c-0.379,20.938,13.655,40.774,50.139,52.976c20.432,6.906,25.856,11.194,25.856,20.182
      C344.668,322.644,337.762,328.414,321.27,328.414z"/>
    <path d="M141.687,276.194c5.045,0.726,11.573,0.978,18.698,0.978c32.417,0,60.23-7.883,78.834-25.479
      c14.539-13.686,22.42-33.899,22.42-57.643c0-23.777-10.343-43.99-25.983-56.194c-16.146-13.055-40.268-19.456-74.167-19.456
      c-33.489,0-57.264,2.21-74.136,5.046v239.593h54.333V276.194z M141.782,162.012c3.847-1.105,11.479-2.209,22.547-2.209
      c27.465,0,42.885,13.276,43.01,35.572c0,24.911-18.132,39.669-47.3,39.669c-7.884,0-13.559-0.346-18.257-1.357V162.012z"/>
    <path d="M0,0v485h485V0H0z M455,455H30V30h425V455z"/>
  </g>
</symbol>

<symbol id="nextjs" viewBox="0 0 15 15" fill="currentColor">
  <path fill-rule="evenodd" clip-rule="evenodd" d="M0 7.5C0 3.35786 3.35786 0 7.5 0C11.6421 0 15 3.35786 15 7.5C15 10.087 13.6902 12.3681 11.6975 13.7163L4.90687 4.20942C4.78053 4.03255 4.5544 3.95756 4.34741 4.02389C4.14042 4.09022 4 4.28268 4 4.50004V12H5V6.06027L10.8299 14.2221C9.82661 14.7201 8.696 15 7.5 15C3.35786 15 0 11.6421 0 7.5ZM10 10V4H11V10H10Z" ></path>
</symbol>

<symbol id="typescript" viewBox="0 0 15 15" fill="currentColor">
  <path fill-rule="evenodd" clip-rule="evenodd" d="M0 0H15V15H0V0ZM10 6C8.89543 6 8 6.89543 8 8C8 9.10457 8.89543 10 10 10H11C11.5523 10 12 10.4477 12 11C12 11.5523 11.5523 12 11 12H10C9.44772 12 9 11.5523 9 11H8C8 12.1046 8.89543 13 10 13H11C12.1046 13 13 12.1046 13 11C13 9.89543 12.1046 9 11 9H10C9.44772 9 9 8.55228 9 8C9 7.44772 9.44772 7 10 7H11.1667C11.6269 7 12 7.3731 12 7.83333V8H13V7.83333C13 6.82081 12.1792 6 11.1667 6H10ZM3 6H8V7H6V13H5V7H3V6Z"/>
</symbol>

<symbol id="tailwind" viewBox="0 2.5 15 10" fill="currentColor">
    <path d="M7.50006 2.5C6.47409 2.5 5.59203 2.77691 4.89966 3.37037C4.21227 3.95956 3.76259 4.81729 3.51314 5.88638C3.45869 6.1197 3.57742 6.35885 3.79619 6.45654C4.01496 6.55423 4.27228 6.483 4.40967 6.28672C4.7263 5.8344 5.04244 5.56261 5.3462 5.42313C5.64038 5.28805 5.95748 5.26068 6.32069 5.35797C6.68723 5.45615 6.97097 5.74369 7.41643 6.22816L7.43082 6.24382C7.76661 6.60905 8.17623 7.0546 8.73649 7.40028C9.31785 7.75898 10.0413 7.99999 11.0001 7.99999C12.026 7.99999 12.9081 7.72307 13.6005 7.12962C14.2878 6.54043 14.7375 5.6827 14.987 4.61361C15.0414 4.38029 14.9227 4.14114 14.7039 4.04345C14.4852 3.94576 14.2278 4.01698 14.0904 4.21326C13.7738 4.66559 13.4577 4.93737 13.1539 5.07686C12.8597 5.21194 12.5426 5.23931 12.1794 5.14202C11.8129 5.04384 11.5291 4.7563 11.0837 4.27182L11.0693 4.25616C10.7335 3.89093 10.3239 3.44538 9.76362 3.09971C9.18227 2.74101 8.45883 2.5 7.50006 2.5Z" ></path> <path d="M4.00006 6.99999C2.97409 6.99999 2.09203 7.2769 1.39966 7.87036C0.712271 8.45955 0.262592 9.31727 0.0131365 10.3864C-0.0413057 10.6197 0.0774162 10.8588 0.296186 10.9565C0.514956 11.0542 0.772276 10.983 0.909673 10.7867C1.2263 10.3344 1.54244 10.0626 1.8462 9.92312C2.14038 9.78804 2.45747 9.76067 2.82069 9.85796C3.18723 9.95614 3.47097 10.2437 3.91643 10.7282L3.93082 10.7438C4.2666 11.109 4.67624 11.5546 5.23649 11.9003C5.81785 12.259 6.54128 12.5 7.50006 12.5C8.52602 12.5 9.40808 12.2231 10.1005 11.6296C10.7878 11.0404 11.2375 10.1827 11.487 9.1136C11.5414 8.88027 11.4227 8.64113 11.2039 8.54343C10.9852 8.44574 10.7278 8.51697 10.5904 8.71325C10.2738 9.16558 9.95768 9.43736 9.65391 9.57684C9.35974 9.71192 9.04264 9.7393 8.67942 9.64201C8.31289 9.54383 8.02915 9.25628 7.58369 8.77181L7.56929 8.75615C7.23351 8.39092 6.82388 7.94537 6.26362 7.59969C5.68227 7.241 4.95883 6.99999 4.00006 6.99999Z" ></path>
</symbol>

<symbol id="html5" viewBox="0 0 58 58" fill="currentColor">
    <g>
      <path d="M51.5,39V13.978c0-0.766-0.092-1.333-0.55-1.792L39.313,0.55C38.964,0.201,38.48,0,37.985,0H8.963
        C7.777,0,6.5,0.916,6.5,2.926V39H51.5z M37.5,3.391c0-0.458,0.553-0.687,0.877-0.363l10.095,10.095
        C48.796,13.447,48.567,14,48.109,14H37.5V3.391z M34.793,18.707c-0.391-0.391-0.391-1.023,0-1.414s1.023-0.391,1.414,0l6,6
        c0.391,0.391,0.391,1.023,0,1.414l-6,6C36.012,30.902,35.756,31,35.5,31s-0.512-0.098-0.707-0.293
        c-0.391-0.391-0.391-1.023,0-1.414L40.086,24L34.793,18.707z M16.793,23.293l6-6c0.391-0.391,1.023-0.391,1.414,0
        s0.391,1.023,0,1.414L18.914,24l5.293,5.293c0.391,0.391,0.391,1.023,0,1.414C24.012,30.902,23.756,31,23.5,31
        s-0.512-0.098-0.707-0.293l-6-6C16.402,24.316,16.402,23.684,16.793,23.293z"/>
      <path d="M6.5,41v15c0,1.009,1.22,2,2.463,2h40.074c1.243,0,2.463-0.991,2.463-2V41H6.5z M18.455,54h-1.641v-4.539h-4.361V54h-1.668
        V43.924h1.668v4.416h4.361v-4.416h1.641V54z M28.107,45.045H25.1V54h-1.654v-8.955h-3.008v-1.121h7.67V45.045z M39.373,54h-1.668
        v-6.932l-2.256,5.605H34l-2.27-5.605V54h-1.668V43.924h1.668l2.994,6.891l2.98-6.891h1.668V54z M48.205,54h-6.303V43.924h1.668
        v8.832h4.635V54z"/>
    </g>
</symbol>

<symbol id="css3" viewBox="5 4 38 42" fill="currentColor">
  <g id="Layer_2" data-name="Layer 2">     <g id="invisible_box" data-name="invisible box">       <rect width="48" height="48" fill="none"></rect>     </g>     <g id="Q3_icons" data-name="Q3 icons">       <path d="M24,46,8.3,41.7,5,4H43L39.7,41.7ZM12,38.6l12,3.3,12-3.3L38.6,8H9.4Z"></path>       <path d="M14,13H34L32.2,34.3,23.9,37l-8.4-2.1-.9-7.2h4.5v3.6l4.8.9,4.4-.9V25.9H14.6l-.3-4.5a2.3,2.3,0,0,1,1.5-.6c6.9,0,12.5.6,12.5.6V17.8H14.6Z"></path>     </g>   </g> 
</symbol>

<symbol id="nodejs" viewBox="0 0 32 32" fill="currentColor">
  <path d="M16,30a2.151,2.151,0,0,1-1.076-.288L11.5,27.685c-.511-.286-.262-.387-.093-.446a6.828,6.828,0,0,0,1.549-.7.263.263,0,0,1,.255.019l2.631,1.563a.34.34,0,0,0,.318,0l10.26-5.922a.323.323,0,0,0,.157-.278V10.075a.331.331,0,0,0-.159-.283L16.158,3.875a.323.323,0,0,0-.317,0L5.587,9.794a.33.33,0,0,0-.162.281V21.916a.315.315,0,0,0,.161.274L8.4,23.814c1.525.762,2.459-.136,2.459-1.038V11.085a.3.3,0,0,1,.3-.3h1.3a.3.3,0,0,1,.3.3V22.777c0,2.035-1.108,3.2-3.038,3.2a4.389,4.389,0,0,1-2.363-.642L4.661,23.788a2.166,2.166,0,0,1-1.076-1.872V10.075A2.162,2.162,0,0,1,4.661,8.2L14.922,2.276a2.246,2.246,0,0,1,2.156,0L27.338,8.2a2.165,2.165,0,0,1,1.077,1.87V21.916a2.171,2.171,0,0,1-1.077,1.872l-10.26,5.924A2.152,2.152,0,0,1,16,30Z" ></path><path d="M14.054,17.953a.3.3,0,0,1,.3-.3h1.327a.3.3,0,0,1,.295.251c.2,1.351.8,2.032,3.513,2.032,2.161,0,3.082-.489,3.082-1.636,0-.661-.261-1.152-3.62-1.481-2.808-.278-4.544-.9-4.544-3.144,0-2.07,1.745-3.305,4.67-3.305,3.287,0,4.914,1.141,5.12,3.589a.3.3,0,0,1-.295.323H22.566a.3.3,0,0,1-.288-.232c-.319-1.421-1.1-1.875-3.2-1.875-2.36,0-2.634.822-2.634,1.438,0,.746.324.964,3.51,1.385,3.153.417,4.651,1.007,4.651,3.223,0,2.236-1.864,3.516-5.115,3.516C14.995,21.743,14.054,19.682,14.054,17.953Z"></path>
</symbol>

<symbol id="python" viewBox="0 0 24 24" fill="currentColor" stroke="null">
  <path d="m11.727 0c-.967.001-1.914.086-2.834.248l.098-.014c-2.423.428-2.862 1.324-2.862 2.976v2.182h5.726v.727h-7.874c-.02 0-.043-.001-.066-.001-1.737 0-3.184 1.239-3.507 2.881l-.004.023c-.256.872-.403 1.874-.403 2.91s.147 2.038.422 2.985l-.019-.076c.407 1.695 1.379 2.902 3.04 2.902h1.969v-2.616c.045-1.953 1.622-3.523 3.574-3.557h.003 5.719c1.584-.013 2.863-1.299 2.863-2.885 0-.009 0-.017 0-.026v.001-5.452c-.104-1.561-1.314-2.81-2.848-2.975l-.014-.001c-.866-.149-1.863-.234-2.879-.234-.036 0-.071 0-.107 0h.005zm-3.096 1.755h.017c.603 0 1.091.489 1.091 1.091s-.489 1.091-1.091 1.091c-.601 0-1.089-.487-1.091-1.088 0-.002 0-.005 0-.008 0-.596.48-1.08 1.074-1.086h.001z"/><path d="m18.287 6.119v2.542c-.022 1.977-1.604 3.578-3.572 3.63h-.005-5.719c-1.584.033-2.856 1.322-2.862 2.909v5.453c0 1.551 1.349 2.464 2.862 2.91.855.277 1.839.437 2.86.437s2.005-.16 2.927-.456l-.068.019c1.44-.417 2.862-1.258 2.862-2.91v-2.184h-5.719v-.727h8.582c1.664 0 2.284-1.161 2.863-2.902.28-.87.441-1.871.441-2.91s-.161-2.04-.46-2.979l.019.07c-.411-1.656-1.2-2.902-2.863-2.902zm-3.216 13.807h.017c.603 0 1.091.489 1.091 1.091s-.489 1.091-1.091 1.091c-.603 0-1.091-.489-1.091-1.091 0-.001 0-.003 0-.004 0-.002 0-.005 0-.007 0-.595.48-1.077 1.074-1.08z"/> 
</symbol>

<symbol id="postgresql" viewBox="0.4 0 23.28 24" fill="currentColor">
  <path d="M17.128 0a10.134 10.134 0 0 0-2.755.403l-.063.02A10.922 10.922 0 0 0 12.6.258C11.422.238 10.41.524 9.594 1 8.79.721 7.122.24 5.364.336 4.14.403 2.804.775 1.814 1.82.827 2.865.305 4.482.415 6.682c.03.607.203 1.597.49 2.879s.69 2.783 1.193 4.152c.503 1.37 1.054 2.6 1.915 3.436.43.419 1.022.771 1.72.742.49-.02.933-.235 1.315-.552.186.245.385.352.566.451.228.125.45.21.68.266.413.103 1.12.241 1.948.1.282-.047.579-.139.875-.27.011.33.024.653.037.98.041 1.036.067 1.993.378 2.832.05.137.187.843.727 1.466.54.624 1.598 1.013 2.803.755.85-.182 1.931-.51 2.649-1.532.71-1.01 1.03-2.459 1.093-4.809.016-.127.035-.235.055-.336l.169.015h.02c.907.041 1.891-.088 2.713-.47.728-.337 1.279-.678 1.68-1.283.1-.15.21-.331.24-.643s-.149-.8-.446-1.025c-.595-.452-.969-.28-1.37-.197a6.27 6.27 0 0 1-1.202.146c1.156-1.947 1.985-4.015 2.458-5.845.28-1.08.437-2.076.45-2.947.013-.871-.058-1.642-.58-2.309C21.36.6 19.067.024 17.293.004c-.055-.001-.11-.002-.165-.001zm-.047.64c1.678-.016 3.822.455 5.361 2.422.346.442.449 1.088.437 1.884-.013.795-.16 1.747-.429 2.79-.522 2.02-1.508 4.375-2.897 6.488a.756.756 0 0 0 .158.086c.29.12.951.223 2.27-.048.332-.07.575-.117.827.075a.52.52 0 0 1 .183.425.704.704 0 0 1-.13.336c-.255.383-.758.746-1.403 1.045-.571.266-1.39.405-2.116.413-.364.004-.7-.024-.985-.113l-.018-.007c-.11 1.06-.363 3.153-.528 4.108-.132.77-.363 1.382-.804 1.84-.44.458-1.063.734-1.901.914-1.038.223-1.795-.017-2.283-.428-.487-.41-.71-.954-.844-1.287-.092-.23-.14-.528-.186-.926-.046-.398-.08-.885-.103-1.434a51.426 51.426 0 0 1-.03-2.523 3.061 3.061 0 0 1-1.552.76c-.689.117-1.304.002-1.671-.09a2.276 2.276 0 0 1-.52-.201c-.17-.091-.332-.194-.44-.397a.56.56 0 0 1-.057-.381.61.61 0 0 1 .218-.331c.198-.161.46-.251.855-.333.719-.148.97-.249 1.123-.37.13-.104.277-.314.537-.622a1.16 1.16 0 0 1-.003-.041 2.96 2.96 0 0 1-1.33-.358c-.15.158-.916.968-1.85 2.092-.393.47-.827.74-1.285.759-.458.02-.872-.211-1.224-.552-.703-.683-1.264-1.858-1.753-3.186-.488-1.328-.885-2.807-1.167-4.067-.283-1.26-.45-2.276-.474-2.766-.105-2.082.382-3.485 1.217-4.37.836-.885 1.982-1.22 3.099-1.284 2.005-.115 3.909.584 4.294.734.742-.504 1.698-.818 2.892-.798a7.39 7.39 0 0 1 1.681.218l.02-.009a6.854 6.854 0 0 1 .739-.214A9.626 9.626 0 0 1 17.08.642zm.152.67h-.146a8.74 8.74 0 0 0-1.704.192c1.246.552 2.187 1.402 2.85 2.25a8.44 8.44 0 0 1 1.132 1.92c.11.264.184.487.226.66.021.087.035.16.04.236.002.038.004.077-.012.144 0 .003-.005.01-.006.013.03.876-.187 1.47-.213 2.306-.02.606.135 1.318.173 2.095.036.73-.052 1.532-.526 2.319.04.048.076.096.114.144 1.254-1.975 2.158-4.16 2.64-6.023.258-1.003.395-1.912.407-2.632.01-.72-.124-1.242-.295-1.46-1.342-1.716-3.158-2.153-4.68-2.165zm-4.79.256c-1.182.003-2.03.36-2.673.895-.663.553-1.108 1.31-1.4 2.085-.347.92-.466 1.81-.513 2.414l.013-.008c.357-.2.826-.4 1.328-.516.502-.115 1.043-.151 1.533.039s.895.637 1.042 1.315c.704 3.257-.219 4.468-.559 5.382a9.61 9.61 0 0 0-.331 1.013c.043-.01.086-.022.129-.026.24-.02.428.06.54.108.342.142.577.44.704.78.033.089.057.185.071.284a.336.336 0 0 1 .02.127 55.14 55.14 0 0 0 .013 3.738c.023.538.057 1.012.1 1.386.043.373.104.657.143.753.128.32.315.739.653 1.024.338.284.823.474 1.709.284.768-.165 1.242-.394 1.559-.723.316-.329.505-.787.626-1.488.181-1.05.545-4.095.589-4.668-.02-.432.044-.764.182-1.017.142-.26.362-.419.552-.505.095-.043.184-.072.257-.093a5.956 5.956 0 0 0-.243-.325 4.456 4.456 0 0 1-.666-1.099 8.296 8.296 0 0 0-.257-.483c-.133-.24-.301-.54-.477-.877-.352-.675-.735-1.493-.934-2.29-.198-.796-.227-1.62.281-2.201.45-.516 1.24-.73 2.426-.61-.035-.105-.056-.192-.115-.332a7.817 7.817 0 0 0-1.041-1.764c-1.005-1.285-2.632-2.559-5.146-2.6h-.115zm-6.642.052c-.127 0-.254.004-.38.011-1.01.058-1.965.351-2.648 1.075-.684.724-1.134 1.911-1.036 3.876.019.372.181 1.414.459 2.652.277 1.238.67 2.695 1.142 3.982.473 1.287 1.046 2.407 1.59 2.937.274.265.512.372.728.363.217-.01.478-.135.797-.518a43.244 43.244 0 0 1 1.81-2.048 3.497 3.497 0 0 1-1.167-3.15c.103-.739.117-1.43.105-1.976-.012-.532-.05-.886-.05-1.107a.336.336 0 0 1 0-.019v-.005l-.001-.006v-.001a9.893 9.893 0 0 1 .592-3.376c.28-.744.697-1.5 1.322-2.112-.614-.202-1.704-.51-2.884-.568a7.603 7.603 0 0 0-.38-.01zM18.199 6.9c-.679.009-1.06.184-1.26.413-.283.325-.31.895-.134 1.597.175.703.537 1.489.877 2.142.17.327.335.621.468.86.134.24.232.41.292.555.055.134.116.252.178.362.263-.555.31-1.1.283-1.668-.035-.703-.198-1.422-.174-2.15.027-.851.195-1.405.21-2.063a5.793 5.793 0 0 0-.74-.048zm-8.234.115a2.82 2.82 0 0 0-.616.074 4.665 4.665 0 0 0-1.153.449 2.417 2.417 0 0 0-.349.228l-.022.02c.006.146.035.5.047 1.021.012.57-.002 1.297-.112 2.084-.239 1.71 1.002 3.126 2.46 3.128.085-.351.225-.707.365-1.082.406-1.094 1.205-1.892.532-5.006-.11-.51-.328-.716-.628-.832a1.474 1.474 0 0 0-.524-.084zm7.917.204h.05c.066.002.127.009.18.022.054.012.1.03.138.055a.164.164 0 0 1 .075.11l-.001.008h.001-.001a.24.24 0 0 1-.035.135.668.668 0 0 1-.11.15.677.677 0 0 1-.386.212.59.59 0 0 1-.41-.103.608.608 0 0 1-.13-.118.26.26 0 0 1-.063-.127.17.17 0 0 1 .042-.128.384.384 0 0 1 .117-.09c.096-.054.226-.094.373-.116.055-.008.109-.012.16-.013zm-7.82.168c.053 0 .109.005.166.013.153.021.289.062.393.122a.446.446 0 0 1 .133.106.223.223 0 0 1 .054.17.302.302 0 0 1-.075.154.649.649 0 0 1-.143.13.64.64 0 0 1-.448.113.728.728 0 0 1-.42-.228.71.71 0 0 1-.118-.164.28.28 0 0 1-.041-.177c.015-.108.104-.164.191-.195a.866.866 0 0 1 .307-.04zm9.06 7.343l-.003.001c-.147.053-.268.075-.37.12a.452.452 0 0 0-.239.214c-.063.115-.117.319-.101.666a.51.51 0 0 0 .148.07c.171.052.458.086.778.081.638-.007 1.423-.156 1.84-.35a3.95 3.95 0 0 0 .943-.615h-.001c-1.393.288-2.18.211-2.663.012a1.315 1.315 0 0 1-.332-.2zm-8.031.094h-.021c-.053.005-.13.023-.279.188-.348.39-.47.635-.757.864-.287.228-.66.35-1.405.503-.236.048-.371.101-.461.144.029.024.026.03.07.053.109.06.249.113.362.142.32.08.846.173 1.395.08.549-.094 1.12-.357 1.607-1.04.084-.118.093-.292.024-.479-.07-.187-.223-.348-.331-.393a.653.653 0 0 0-.204-.06z"></path>
</symbol>

<symbol id="figma" viewBox="0 0 15 15" stroke="currentColor">
  <path d="M7.5 1V9.5M7.5 9.5V11.5C7.5 12.6046 6.60457 13.5 5.5 13.5C4.39543 13.5 3.5 12.6046 3.5 11.5C3.5 10.3954 4.39543 9.5 5.5 9.5M7.5 9.5H5.5M5.5 9.5C4.39543 9.5 3.5 8.60457 3.5 7.5C3.5 6.39543 4.39543 5.5 5.5 5.5M5.5 5.5H7.5M5.5 5.5H9.5M5.5 5.5C4.39543 5.5 3.5 4.60457 3.5 3.5C3.5 2.39543 4.39543 1.5 5.5 1.5H9.5C10.6046 1.5 11.5 2.39543 11.5 3.5C11.5 4.60457 10.6046 5.5 9.5 5.5M9.5 5.5C10.6046 5.5 11.5 6.39543 11.5 7.5C11.5 8.60457 10.6046 9.5 9.5 9.5C8.39543 9.5 7.5 8.60457 7.5 7.5C7.5 6.39543 8.39543 5.5 9.5 5.5Z" />  
</symbol>

<symbol id="docker" viewBox="0 0 15 15" fill="currentColor">
  <path d="M0.5 5.5V5H0V5.5H0.5ZM2.5 3.5V3H2V3.5H2.5ZM6.5 1.5V1H6V1.5H6.5ZM8.5 1.5H9V1H8.5V1.5ZM12.5 7.5H12V8H12.5V7.5ZM1 7.5V5.5H0V7.5H1ZM3 7.5V3.5H2V7.5H3ZM2.5 4H8.5V3H2.5V4ZM8 3.5V7.5H9V3.5H8ZM5 7.5V3.5H4V7.5H5ZM7 7.5V1.5H6V7.5H7ZM6.5 2H8.5V1H6.5V2ZM8 1.5V3.5H9V1.5H8ZM13.7361 10H15V9H13.7361V10ZM10 5V5.5H11V5H10ZM12 6.5V7.5H13V6.5H12ZM12.5 8H13.5V7H12.5V8ZM14 8.5V9.5H15V8.5H14ZM13.5 8C13.7761 8 14 8.22386 14 8.5H15C15 7.67157 14.3284 7 13.5 7V8ZM11.5 6C11.7761 6 12 6.22386 12 6.5H13C13 5.67157 12.3284 5 11.5 5V6ZM3 10H4V9H3V10ZM8.5 7H0.5V8H8.5V7ZM0 7.5V8.5H1V7.5H0ZM5.5 14H6.02786V13H5.5V14ZM6.02786 14C8.51265 14 10.8164 12.8096 12.2585 10.8496L11.4531 10.257C10.1974 11.9636 8.19126 13 6.02786 13V14ZM0 8.5C0 11.5376 2.46243 14 5.5 14V13C3.01472 13 1 10.9853 1 8.5H0ZM0.5 6H11.5V5H0.5V6ZM10 5.5C10 6.32843 9.32843 7 8.5 7V8C9.88071 8 11 6.88071 11 5.5H10ZM13.7361 9C12.7762 9 11.9673 9.55817 11.4531 10.257L12.2585 10.8496C12.6423 10.3281 13.1808 10 13.7361 10V9Z"/>
</symbol>

<symbol id="aws" viewBox="0 4.8 24 15" fill="currentColor">
  <path d="m12.248 6.685c-.656 2.694-.614 2.55-1.209 5.014-.013.227-.201.406-.43.406-.025 0-.05-.002-.074-.006h.003-.675c-.02.004-.044.006-.067.006-.203 0-.37-.151-.396-.346v-.002c-.577-1.846-1.35-4.41-1.87-6.125-.192-.633-.066-.618.436-.605.174.005.342 0 .515 0 .012-.001.026-.002.041-.002.196 0 .358.145.385.333v.002c.169.605.281 1.069 1.246 4.88.018.075.042.146.066.215h.051c.023-.094.051-.182.075-.277q.548-2.313 1.092-4.63c.113-.48.314-.525.8-.525h.356c.32.005.422.07.502.389.281 1.097 1.102 4.77 1.251 5.174.24-.858-.084.37 1.336-5.108.098-.379.192-.454.577-.454h.591c.253.005.328.084.267.333-.113.446-.136.464-1.935 6.228-.146.464-.197.506-.684.506h-.497c-.342 0-.431-.061-.515-.394-.202-.759-1.092-4.485-1.238-5.01zm-6.364 5.211c.068.139.208.233.37.233.114 0 .216-.046.291-.121l.295-.197c.32-.211.342-.295.169-.633-.186-.354-.296-.773-.296-1.218 0-.015 0-.03 0-.045v.002c0-.146.028-2.61-.042-3.13-.062-.87-.665-1.584-1.471-1.811l-.014-.003c-.353-.098-.758-.154-1.177-.154-.126 0-.252.005-.375.015l.016-.001c-.736.029-1.42.224-2.025.547l.025-.012c-.091.049-.159.13-.191.227l-.001.003c-.026.118-.041.254-.041.393 0 .061.003.122.008.182l-.001-.008c.028.277.122.328.384.24.24-.08.469-.182.708-.253.345-.128.743-.202 1.159-.202.323 0 .635.045.931.128l-.024-.006c.317.095.564.334.668.639l.002.007c.077.258.122.554.122.861 0 .094-.004.188-.012.28l.001-.012c0 .258-.005.258-.258.211-.43-.107-.923-.169-1.431-.169-.187 0-.373.008-.556.025l.024-.002c-.726.053-1.36.406-1.787.933l-.004.005c-.26.36-.416.811-.416 1.298 0 .197.025.387.073.569l-.003-.016c.104.682.588 1.228 1.225 1.422l.012.003c.28.1.603.158.94.158.667 0 1.282-.227 1.77-.608l-.006.005c.178-.131.338-.29.52-.446.146.234.272.454.417.656zm-.72-2.887h.005c.111 0 .201.09.201.201 0 .014-.001.027-.004.041v-.001c-.01.178.005.356-.014.534-.05.523-.377.959-.83 1.164l-.009.004c-.294.154-.641.245-1.01.245-.075 0-.149-.004-.222-.011l.009.001c-.529-.031-.946-.467-.946-1.001 0-.082.01-.162.029-.239l-.001.007c.026-.548.46-.987 1.004-1.021h.003c.21-.034.452-.053.698-.053.388 0 .766.048 1.126.138l-.032-.007zm16.346 3.051c.825-.277 1.408-1.043 1.408-1.945 0-.141-.014-.279-.041-.412l.002.013c-.107-.653-.564-1.177-1.169-1.379l-.012-.004c-.912-.286-1.659-.575-2.383-.905l.129.053c-.209-.105-.351-.315-.356-.559v-.001c-.006-.037-.009-.079-.009-.122 0-.419.318-.763.726-.805h.003c.211-.05.453-.078.702-.078.217 0 .43.022.635.063l-.02-.003c.342.066.67.197 1.003.295.131.042.277.098.366-.075.046-.097.073-.211.073-.33 0-.298-.166-.557-.411-.689l-.004-.002c-.494-.236-1.074-.373-1.686-.373-.546 0-1.066.11-1.54.308l.026-.01c-.725.288-1.228.984-1.228 1.797 0 .779.462 1.451 1.127 1.755l.012.005c.361.174.754.277 1.134.417s.759.272 1.13.426c.256.142.427.411.427.72 0 .286-.146.537-.368.684l-.003.002c-1.298.72-3.04-.113-3.243-.178-.154-.051-.248.01-.295.174-.038.089-.06.193-.06.302 0 .369.255.679.599.761l.005.001c.531.213 1.146.336 1.79.336.546 0 1.072-.089 1.563-.253l-.035.01zm-7.634 7.625c2.498-.268 4.766-1.052 6.763-2.244l-.076.042c.375-.22.726-.48 1.082-.736.342-.24.15-.862-.53-.572-2.344 1.029-5.066 1.687-7.925 1.821l-.051.002c-.3.015-.651.023-1.004.023-1.152 0-2.284-.088-3.389-.258l.123.016c-3.117-.449-5.924-1.458-8.429-2.927l.109.059c-.088-.059-.189-.107-.297-.139l-.008-.002c-.23-.051-.361.22-.113.454 3.069 2.838 7.189 4.578 11.716 4.578h.014-.001c.675-.038 1.35-.042 2.015-.117zm8.187-4.32c.694.038.909.277.736.946-.178.694-.436 1.369-.651 2.053-.042.136-.197.295-.038.413.174.122.305-.047.422-.154.455-.433.813-.962 1.044-1.555l.01-.029c.258-.564.408-1.224.408-1.919 0-.016 0-.031 0-.047v.002c-.01-.29-.084-.413-.366-.492-.224-.069-.487-.122-.757-.148l-.016-.001c-.183-.023-.394-.036-.609-.036-.836 0-1.626.197-2.327.546l.03-.014c-.155.084-.289.176-.412.28l.004-.003c-.051.042-.15.248.113.286.024.002.053.003.081.003.069 0 .137-.006.202-.018l-.007.001c.526-.075 1.134-.118 1.751-.118.134 0 .267.002.4.006h-.019z"></path>
</symbol>

<symbol id="git" viewBox="100 228 800 800" fill="currentColor">
  <path d="M499 228q-21 0 -36 15l-73 73l92 92q17 -6 34 -2t29.5 16.5t16 29.5t-1.5 34l88 88q17 -5 34 -1.5t30 16.5q18 18 18 43.5t-18 43t-43.5 17.5t-43.5 -17q-13 -14 -16.5 -32t3.5 -35l-83 -83v218q9 4 16 11q18 18 18 43.5t-18 43.5t-43.5 18t-43 -18t-17.5 -43.5t18 -43.5 q8 -8 20 -13v-220q-12 -4 -20 -13q-14 -13 -17.5 -31.5t3.5 -35.5l-90 -91l-240 240q-15 15 -15 36.5t15 36.5l349 349q15 15 36.5 15t36.5 -15l348 -348q15 -15 15 -36.5t-15 -36.5l-349 -349q-15 -15 -37 -15z"></path> 
</symbol>

<symbol id="github" viewBox="0 0 20 20" fill="currentColor">
  <path d="M20,10.2504514 C20,12.4838397 19.3641493,14.4925545 18.0924479,16.2765957 C16.8207465,18.060637 15.1779514,19.2952291 13.1640625,19.9803721 C12.9296875,20.0248619 12.7582465,19.9937191 12.6497396,19.8869435 C12.5412326,19.780168 12.4869791,19.6466986 12.4869792,19.4865353 L12.4869792,16.6703305 C12.4869792,15.8072283 12.2612847,15.175473 11.8098958,14.7750648 C12.3046875,14.721677 12.749566,14.6415953 13.1445312,14.5348198 C13.5394965,14.4280442 13.9474826,14.254534 14.3684896,14.0142891 C14.7894965,13.7740441 15.141059,13.4781869 15.4231771,13.1267174 C15.7052951,12.7752479 15.9353298,12.308105 16.1132812,11.7252885 C16.2912326,11.1424721 16.3802083,10.4729005 16.3802083,9.71657375 C16.3802083,8.63992043 16.0373264,7.72343042 15.3515625,6.9671037 C15.6727431,6.15738922 15.6380208,5.24979717 15.2473958,4.24432755 C15.0043403,4.1642459 14.6527778,4.21318469 14.1927083,4.39114391 C13.7326389,4.56910313 13.3333333,4.76485827 12.9947917,4.97840935 L12.5,5.29873596 C11.6927083,5.06738897 10.859375,4.95171547 10,4.95171547 C9.14062499,4.95171547 8.30729166,5.06738897 7.5,5.29873596 C7.36111111,5.20085839 7.1766493,5.08073592 6.94661458,4.93836854 C6.71657986,4.79600116 6.35416667,4.62471541 5.85937499,4.42451127 C5.36458332,4.22430714 4.99131943,4.1642459 4.73958333,4.24432755 C4.35763889,5.24979719 4.32725695,6.15738923 4.6484375,6.9671037 C3.96267361,7.72343042 3.61979167,8.63992043 3.61979167,9.71657375 C3.61979167,10.4729005 3.70876737,11.1402476 3.88671876,11.7186151 C4.06467015,12.2969825 4.29253473,12.7641255 4.57031251,13.120044 C4.84809028,13.4759624 5.19748264,13.7740441 5.61848959,14.0142891 C6.03949654,14.254534 6.44748265,14.4280443 6.84244791,14.5348198 C7.23741317,14.6415953 7.68229165,14.721677 8.17708333,14.7750648 C7.82986111,15.0953914 7.6171875,15.5536364 7.5390625,16.1497998 C7.35677083,16.2387794 7.16145833,16.3055141 6.95312499,16.3500039 C6.74479166,16.3944937 6.49739583,16.4167386 6.21093751,16.4167386 C5.92447919,16.4167386 5.64019099,16.3210856 5.35807291,16.1297794 C5.07595483,15.9384732 4.83506942,15.6604119 4.63541668,15.2955955 C4.47048612,15.0108607 4.25998265,14.7795137 4.00390626,14.6015545 C3.74782986,14.4235953 3.53298612,14.3168197 3.35937501,14.2812279 L3.09895833,14.2411871 C2.91666667,14.2411871 2.79079861,14.2612075 2.72135418,14.3012483 C2.65190974,14.3412891 2.63020835,14.3924524 2.65625001,14.4547382 C2.68229166,14.5170239 2.72135416,14.5793096 2.77343751,14.6415953 C2.82552085,14.7038811 2.88194446,14.7572688 2.94270833,14.8017586 L3.03385416,14.8684934 C3.22482639,14.957473 3.41362848,15.1265342 3.60026042,15.3756771 C3.78689236,15.62482 3.92361111,15.8517181 4.01041667,16.0563712 L4.14062501,16.3633509 C4.25347222,16.7014734 4.44444444,16.9750857 4.71354167,17.1841878 C4.98263889,17.3932899 5.2734375,17.5267593 5.58593749,17.584596 C5.89843749,17.6424328 6.20008679,17.6735757 6.49088542,17.6780246 C6.78168404,17.6824736 7.02256946,17.6669022 7.21354167,17.6313103 L7.51302084,17.5779226 C7.51302084,17.9160451 7.51519097,18.3120044 7.51953125,18.7658004 C7.52387152,19.2195964 7.52604166,19.4598414 7.52604166,19.4865353 C7.52604166,19.6466986 7.46961805,19.780168 7.35677083,19.8869435 C7.24392362,19.9937191 7.07031251,20.024862 6.8359375,19.9803721 C4.8220486,19.2952291 3.17925347,18.060637 1.90755209,16.2765957 C0.635850712,14.4925545 0,12.4838397 0,10.2504514 C0,8.39077752 0.447048612,6.67569548 1.34114584,5.10520531 C2.23524306,3.53471514 3.4483507,2.29122504 4.98046876,1.37473503 C6.51258682,0.458245009 8.1857639,0 10,0 C11.8142361,0 13.4874132,0.458245009 15.0195312,1.37473503 C16.5516493,2.29122504 17.7647569,3.53471514 18.6588542,5.10520531 C19.5529514,6.67569548 20,8.39077752 20,10.2504514 Z"></path>
</symbol>

<symbol id="linux" viewBox="2.23 1 11.53 14"  fill="currentColor">
  <path  d="M8.294 1c-.09 0-.184.005-.28.012-2.465.194-1.811 2.804-1.85 3.674-.043.637-.174 1.14-.612 1.762-.516.613-1.24 1.604-1.584 2.637-.162.485-.24.982-.167 1.452a.247.247 0 00-.064.079c-.152.156-.263.35-.387.49-.116.115-.283.155-.465.232-.183.08-.384.157-.504.397a.78.78 0 00-.077.351c0 .116.016.234.032.313.034.233.068.425.023.566-.145.396-.163.668-.062.865.102.195.313.275.549.351.472.117 1.114.079 1.618.35.54.272 1.088.39 1.526.274.307-.067.566-.27.705-.552.342-.001.717-.157 1.318-.194.408-.034.918.155 1.503.116.015.078.037.116.067.194l.001.002c.229.454.65.66 1.1.625.45-.035.928-.313 1.316-.762.368-.446.982-.632 1.387-.877.203-.116.367-.273.379-.497.013-.234-.117-.473-.417-.803v-.056l-.002-.002c-.099-.117-.145-.312-.197-.54-.05-.234-.106-.459-.287-.61h-.001c-.035-.032-.072-.04-.11-.08a.208.208 0 00-.11-.037c.25-.745.153-1.487-.102-2.154-.31-.823-.854-1.54-1.269-2.032-.464-.587-.919-1.142-.91-1.965.016-1.255.138-3.578-2.067-3.581zm.309 1.986h.007c.125 0 .231.036.34.116a.89.89 0 01.256.31c.062.152.093.268.097.423 0-.012.004-.023.004-.035v.061a.05.05 0 01-.003-.012l-.002-.014c-.001.142-.03.282-.087.412a.556.556 0 01-.125.195.415.415 0 00-.051-.024c-.06-.027-.115-.038-.166-.078a.765.765 0 00-.128-.038c.03-.035.085-.078.107-.116a.69.69 0 00.051-.234V3.94a.706.706 0 00-.035-.233c-.027-.079-.06-.117-.107-.195-.05-.038-.098-.077-.156-.077h-.01c-.054 0-.102.018-.152.077a.467.467 0 00-.12.195.688.688 0 00-.052.234v.01c0 .053.004.105.011.156-.112-.039-.255-.078-.354-.117a.954.954 0 01-.01-.117V3.86a1.034 1.034 0 01.087-.448.63.63 0 01.251-.31.575.575 0 01.347-.117zm-1.728.035h.02c.084 0 .158.028.234.078a.806.806 0 01.2.272c.053.116.082.233.09.389v.002a.856.856 0 01-.002.155v.047l-.048.014c-.089.032-.16.079-.23.117a.633.633 0 00.002-.156V3.93c-.007-.078-.023-.117-.047-.194a.358.358 0 00-.097-.156.145.145 0 00-.107-.037h-.012c-.042.003-.076.023-.109.077a.322.322 0 00-.07.157.55.55 0 00-.013.193v.008c.007.08.021.117.047.195a.363.363 0 00.096.157c.006.005.012.01.02.014-.04.033-.068.04-.102.079a.177.177 0 01-.077.04 1.53 1.53 0 01-.16-.235 1.034 1.034 0 01-.09-.389c-.01-.132.005-.264.046-.39a.834.834 0 01.165-.312c.075-.077.152-.116.244-.116zm.799.995c.194 0 .428.038.71.233.17.116.304.157.613.273h.002c.149.079.236.155.279.232v-.076a.333.333 0 01.009.274c-.072.18-.301.375-.62.491v.001c-.156.08-.292.195-.452.272-.161.078-.343.17-.59.155a.664.664 0 01-.262-.039 2.077 2.077 0 01-.188-.115c-.113-.079-.211-.194-.357-.271v-.003h-.003c-.233-.144-.359-.299-.4-.414-.04-.157-.003-.275.113-.35.13-.08.221-.159.282-.197.06-.043.083-.059.102-.076h.001v-.002c.099-.117.255-.274.49-.35.08-.021.171-.038.272-.038h-.001zm1.633 1.25c.21.826.698 2.026 1.012 2.609.167.311.5.967.643 1.764.091-.003.193.01.3.037.376-.975-.319-2.022-.636-2.314-.128-.116-.135-.195-.071-.195.344.312.796.917.96 1.608.075.312.093.644.012.974.039.017.079.035.12.04.601.311.824.547.717.896v-.025c-.035-.002-.07 0-.105 0h-.01c.089-.272-.106-.481-.62-.714-.534-.233-.96-.196-1.033.271-.005.025-.008.039-.01.079-.04.013-.082.03-.123.037-.25.157-.386.39-.462.693-.076.31-.1.674-.12 1.09v.002c-.011.195-.099.489-.186.787-.875.626-2.088.897-3.12.195a1.543 1.543 0 00-.234-.31.846.846 0 00-.16-.195.963.963 0 00.27-.04.359.359 0 00.184-.194c.063-.156 0-.407-.201-.678-.201-.273-.543-.58-1.043-.888-.368-.233-.575-.507-.671-.814-.096-.312-.083-.633-.009-.96.143-.624.51-1.23.743-1.611.063-.038.022.078-.238.568-.23.438-.665 1.456-.07 2.248.022-.578.15-1.146.377-1.678.329-.745 1.016-2.044 1.07-3.073.029.021.127.08.17.118.126.078.22.194.343.271a.694.694 0 00.511.196l.065.003c.24 0 .425-.078.581-.156.17-.078.304-.195.432-.233h.003c.272-.08.487-.235.609-.409zm1.275 5.225c.021.35.2.726.514.803.343.078.837-.194 1.045-.446l.123-.006c.184-.004.337.006.494.156l.002.002c.121.116.178.31.228.511.05.233.09.455.239.622.283.307.376.528.37.665l.003-.004v.01l-.002-.007c-.009.153-.108.231-.29.347-.368.234-1.02.416-1.434.916-.36.43-.8.665-1.188.695-.387.03-.721-.117-.918-.524l-.003-.002c-.122-.233-.07-.597.033-.985.103-.39.25-.784.27-1.107.022-.417.044-.779.114-1.058.07-.271.18-.465.374-.574l.026-.013v-.001zm-6.308.028h.006a.53.53 0 01.091.009c.22.032.412.194.597.438l.53.97.003.003c.141.31.44.62.693.955.253.348.45.66.425.915v.004c-.033.434-.28.67-.656.755-.376.079-.887 0-1.397-.27-.565-.314-1.235-.274-1.667-.352-.215-.039-.355-.117-.421-.233-.064-.117-.066-.352.071-.718v-.002l.002-.002c.068-.195.017-.439-.016-.652-.032-.234-.049-.414.025-.549.093-.194.23-.233.402-.31.172-.08.374-.118.534-.275h.001c.15-.157.26-.351.39-.49.11-.117.222-.196.387-.196zM8.45 5.226c-.254.117-.551.312-.868.312-.316 0-.566-.155-.747-.272-.09-.078-.163-.156-.217-.195-.096-.078-.084-.194-.044-.194.064.01.076.078.117.117.056.038.125.116.21.194.17.116.396.272.68.272.283 0 .615-.156.816-.272.114-.078.26-.194.378-.272.09-.08.087-.156.163-.156.074.01.02.078-.086.194-.13.098-.264.189-.403.273zm-.631-.923V4.29c-.004-.012.007-.024.017-.03.043-.024.105-.015.151.003.037 0 .094.04.088.079-.004.029-.05.038-.079.038-.032 0-.054-.025-.082-.04-.03-.01-.085-.004-.095-.037zm-.322 0c-.011.034-.066.028-.097.038-.027.015-.05.04-.081.04-.03 0-.076-.012-.08-.04-.005-.038.052-.077.088-.077.047-.018.107-.028.151-.003.011.005.021.017.018.029v.012h.001z"></path>
</symbol>

<symbol id="excel" viewBox="1 1.11 12 11.78" fill="currentColor">
  <path d="m 12.7765,2.551 -4.02,0 0,0.744 1.185,0 0,1.177 -1.185,0 0,0.375 1.185,0 0,1.1785 -1.185,0 0,0.3855 1.185,0 0,1.1145 -1.185,0 0,0.4465 1.185,0 0,1.117 -1.185,0 0,0.4465 1.185,0 0,1.1235 -1.185,0 0,0.8195 4.02,0 c 0.0635,-0.019 0.1165,-0.094 0.159,-0.224 C 12.978,11.1235 13,11.017 13,10.9365 L 13,2.687 C 13,2.623 12.978,2.5845 12.9355,2.571 12.893,2.558 12.84,2.551 12.7765,2.551 Z m -0.5215,8.107 -1.9285,0 0,-1.1225 1.9285,0 0,1.1235 0,-0.001 z m 0,-1.569 -1.9285,0 0,-1.1175 1.9285,0 0,1.1175 z m 0,-1.564 -1.9285,0 0,-1.1095 1.9285,0 0,1.1105 0,-10e-4 z m 0,-1.5 -1.9285,0 0,-1.177 1.9285,0 0,1.1775 0,-5e-4 z m 0,-1.5595 -1.9285,0 0,-1.17 1.9285,0 0,1.1775 0,-0.0075 z M 1,2.3655 1,11.666 8.08,12.8905 8.08,1.1095 1,2.3695 1,2.3655 Z M 5.1965,9.401 C 5.1695,9.328 5.0425,9.018 4.8175,8.4695 4.593,7.9215 4.4575,7.6025 4.418,7.5115 l -0.0125,0 L 3.646,9.319 2.631,9.2505 l 1.204,-2.25 -1.1025,-2.25 1.035,-0.0545 0.684,1.7605 0.0135,0 L 5.2375,4.616 6.307,4.5485 5.0335,6.9835 6.346,9.4675 5.1965,9.4 l 0,10e-4 z"></path>
</symbol>

<symbol id="vscode" viewBox="0 0 24 24"  fill="currentColor">
  <path d="M0.228341 8.36915C0.228341 8.36915 -0.356212 7.94324 0.345251 7.37453L1.97956 5.89736C1.97956 5.89736 2.44721 5.40004 2.94164 5.83334L18.0231 17.375V22.9094C18.0231 22.9094 18.0158 23.7785 16.9124 23.6825L0.228341 8.36915Z" ></path> <path d="M4.11555 11.9367L0.228273 15.5089C0.228273 15.5089 -0.171172 15.8093 0.228273 16.346L2.03308 18.0053C2.03308 18.0053 2.46175 18.4706 3.09502 17.9413L7.21611 14.7827L4.11555 11.9367Z" ></path> <path d="M10.94 11.9661L18.0691 6.46362L18.0228 0.95865C18.0228 0.95865 17.7183 -0.242793 16.7027 0.382548L7.21589 9.11025L10.94 11.9661Z" ></path> <path d="M16.9121 23.69C17.3261 24.1183 17.8279 23.978 17.8279 23.978L23.3838 21.2108C24.0951 20.7208 23.9952 20.1127 23.9952 20.1127V3.58803C23.9952 2.86175 23.2596 2.61063 23.2596 2.61063L18.4441 0.264377C17.3919 -0.392968 16.7027 0.382548 16.7027 0.382548C16.7027 0.382548 17.5892 -0.262484 18.0228 0.95865L18.0228 22.8086C18.0228 22.9588 17.9911 23.1065 17.9278 23.2394C17.8011 23.4979 17.5259 23.7392 16.8658 23.6383L16.9121 23.69Z" ></path> 
</symbol>

<symbol id="premiere" viewBox="0 0.3 24 23.4"  fill="currentColor" stroke="currentColor">
  <path d="M6.297 5.778c0-.066.016-.116.099-.116.643-.033 1.584-.05 2.574-.05 2.772 0 3.976 1.519 3.976 3.466 0 2.54-1.838 3.63-4.099 3.63-.379 0-.511-.017-.775-.017v3.843c0 .083-.033.116-.116.116H6.412c-.082 0-.115-.033-.115-.116zm1.775 5.313c.231.016.412.016.808.016 1.172 0 2.268-.412 2.268-1.996 0-1.27-.783-1.914-2.119-1.914-.396 0-.776.016-.957.033zm6.4-.908c0-.115 0-.412-.05-.973 0-.083.012-.1.078-.132a10.42 10.42 0 0 1 3.656-.693c.083 0 .116.016.116.099v1.452c0 .082-.027.099-.11.099-.626-.033-1.544.05-1.89.198v6.301c0 .083-.033.116-.116.116h-1.569c-.082 0-.115-.033-.115-.116zM0 .3v23.4h24V.3zm1 1h22v21.4H1Z"></path>
</symbol>

<symbol id="canva" viewBox="33.56 16 124.96 160"  fill="currentColor">
  <path d="M95.2 170c-11.6 0-22-3.1-30.9-9.1-8.8-6-15.4-14.6-19.7-25.6-2.5-6.4-4-13.4-4.7-21.4-.8-9.5-.2-19.2 1.9-28.7 3.3-15.3 10-28.5 19.8-39.5 9.7-10.8 21.2-18.1 34.3-21.5 5.6-1.5 11.2-2.2 16.5-2.2 6.4 0 12.7 1.1 18.7 3.3 8.9 3.3 15 9 17.9 17 1.4 3.7 1.8 7.6 1.4 12-.6 6.2-2.6 11.7-6 16.4-3.9 5.4-8.6 8.7-14.3 10.1-1 .3-2.1.4-3.3.4-.5 0-.9 0-1.4-.1-1.7-.2-3.2-.9-4.2-2.2-1-1.3-1.4-3-1.2-4.7.3-2 1.1-3.7 1.9-5.1l.3-.6c1.6-3.2 3.1-6.2 3.9-9.4 1.3-5.4 1.3-9.5-.1-13.3-1.5-4-4.3-6.5-8.5-7.5-1.6-.4-3.2-.6-4.8-.6-3.6 0-7.4.9-11.4 2.7C93.4 44 86.7 50 81 58.7c-3.9 6-6.9 12.7-9.1 20.5-1.6 5.6-2.6 11.5-3.2 17.6-.3 2.9-.5 6.3-.5 9.6.1 9.7 1.5 17.4 4.5 24.2 3.3 7.6 7.8 12.9 13.9 16.3 4.1 2.3 8.7 3.5 13.6 3.5.8 0 1.7 0 2.6-.1 10.4-.8 19.6-5.5 28-14.3 4.3-4.5 7.9-9.7 11-15.9.5-.9 1-1.9 1.8-2.7 1-1.1 2.3-1.7 3.7-1.7 1.7 0 3.2.9 4.2 2.5 1.2 2 1.1 4.2.9 5.6-.6 4.1-2.1 8.1-4.6 12.8-7.2 12.9-17.1 22.4-29.4 28.3-6.3 3-13.1 4.7-20.1 5-1.1.1-2.1.1-3.1.1z"></path>
</symbol>

<symbol id="sqldb" viewBox="0 0 16 16">
<path fill="currentColor" d="M14 2.5c0 0.828-2.686 1.5-6 1.5s-6-0.672-6-1.5c0-0.828 2.686-1.5 6-1.5s6 0.672 6 1.5z"></path>
<path fill="currentColor" d="M8 5c-3.3 0-6-0.7-6-1.5v3c0 0.8 2.7 1.5 6 1.5s6-0.7 6-1.5v-3c0 0.8-2.7 1.5-6 1.5z"></path>
<path fill="currentColor" d="M8 9c-3.3 0-6-0.7-6-1.5v3c0 0.8 2.7 1.5 6 1.5s6-0.7 6-1.5v-3c0 0.8-2.7 1.5-6 1.5z"></path>
<path fill="currentColor" d="M8 13c-3.3 0-6-0.7-6-1.5v3c0 0.8 2.7 1.5 6 1.5s6-0.7 6-1.5v-3c0 0.8-2.7 1.5-6 1.5z"></path>
</symbol>


<symbol id="javascript" viewBox="75 177 850 850"  fill="currentColor">
  <path d="M75 177v850h850v-850h-850zM722 562q39 0 66.5 15t46.5 49l-62 40q-10 -18 -22 -26t-29 -8t-27.5 9.5t-10.5 24.5q0 17 11 28q10 9 38 21l20 8q55 24 78 49q28 30 28 77q0 52 -38 82q-36 29 -95 29q-53 0 -91 -23q-35 -22 -54 -59l65 -37q14 23 31 35q20 13 48 13 q24 0 39 -11t15 -29t-15 -30q-11 -8 -43 -22l-20 -9q-48 -20 -70 -45q-26 -29 -26 -75t32 -76t85 -30zM458 567h80v273q0 60 -34 91q-31 29 -86 29q-45 0 -77 -21q-27 -19 -43 -52l66 -39q11 21 20 29q12 12 31 12q21 0 31 -10q12 -12 12 -40v-272z"></path> 
</symbol>

<symbol id="autohotkey" viewBox="0 0.51 24 22.98"  fill="currentColor">
  <path d="M20.514.508V.51H1.803C1.053.51.079 1.135 0 2.27v17.133h.002v2.325c.08 1.136 1.05 1.763 1.8 1.763h1.505l.002-.002h18.869c1.256-.053 1.766-1.066 1.822-1.699v-3.023h-.002V2.209c-.056-.633-.567-1.648-1.824-1.701h-1.66zM3.412 1.623h17.154c.898 0 1.618.72 1.618 1.617v16.64c0 .898-.72 1.62-1.618 1.62H3.412a1.616 1.616 0 0 1-1.619-1.62V3.24c0-.897.722-1.617 1.62-1.617zm3.315 12.412-1.895 5.037h.703l.526-1.467h2.02l.497 1.467h.744l-1.824-5.037h-.771zm8.43.008v5.037h.679v-1.767l.793-.758 1.76 2.525h.884l-2.154-3.002 2.098-2.035h-.94l-2.441 2.441v-2.441h-.68zm-5.153.027v5.037h.682v-2.351h2.628v2.351h.682V14.07h-.682v2.084h-2.628V14.07h-.682zm-2.926.717h.014l.742 2.217H6.271l.807-2.217z"></path>
</symbol>

<symbol id="fastapi" viewBox="0 0 24 24" fill="currentColor">
  <path d="M12 0C5.375 0 0 5.375 0 12c0 6.627 5.375 12 12 12 6.626 0 12-5.373 12-12 0-6.625-5.373-12-12-12zm-.624 21.62v-7.528H7.19L13.203 2.38v7.528h4.029L11.376 21.62z"></path>
</symbol>

<symbol id="pandas" viewBox="6.6 1.04 18.81 29.91" fill="currentColor">
  <path d="M11.849 2.813h3.269v6.787h-3.268zM11.849 16.755h3.269v6.789h-3.268zM11.849 11.582h3.269v3.203h-3.268zM6.598 8.393h3.268v22.563h-3.269zM16.992 22.356h3.269v6.787h-3.269zM16.992 8.401h3.269v6.787h-3.269zM16.992 17.171h3.269v3.203h-3.269zM22.134 1.045h3.269v22.563h-3.269z"></path>
</symbol>

<symbol id="backend" viewBox="1.75 1.75 20.5 20.5" fill="currentColor">
  <path d="M20 14.25C21.2426 14.25 22.25 13.2426 22.25 12C22.25 10.7574 21.2426 9.75 20 9.75C18.7574 9.75 17.75 10.7574 17.75 12C17.75 13.2426 18.7574 14.25 20 14.25Z"></path> <path d="M20 6.25C21.2426 6.25 22.25 5.24264 22.25 4C22.25 2.75736 21.2426 1.75 20 1.75C18.7574 1.75 17.75 2.75736 17.75 4C17.75 5.24264 18.7574 6.25 20 6.25Z"></path> <path d="M20 22.25C21.2426 22.25 22.25 21.2426 22.25 20C22.25 18.7574 21.2426 17.75 20 17.75C18.7574 17.75 17.75 18.7574 17.75 20C17.75 21.2426 18.7574 22.25 20 22.25Z"></path> <path d="M4 14.25C5.24264 14.25 6.25 13.2426 6.25 12C6.25 10.7574 5.24264 9.75 4 9.75C2.75736 9.75 1.75 10.7574 1.75 12C1.75 13.2426 2.75736 14.25 4 14.25Z"></path> <path d="M19 12.75C19.41 12.75 19.75 12.41 19.75 12C19.75 11.59 19.41 11.25 19 11.25H11.75V7C11.75 5.42 12.42 4.75 14 4.75H19C19.41 4.75 19.75 4.41 19.75 4C19.75 3.59 19.41 3.25 19 3.25H14C11.58 3.25 10.25 4.58 10.25 7V11.25H5C4.59 11.25 4.25 11.59 4.25 12C4.25 12.41 4.59 12.75 5 12.75H10.25V17C10.25 19.42 11.58 20.75 14 20.75H19C19.41 20.75 19.75 20.41 19.75 20C19.75 19.59 19.41 19.25 19 19.25H14C12.42 19.25 11.75 18.58 11.75 17V12.75H19Z"></path>
</symbol>

<symbol id="creative" viewBox="1 6 48 38" fill="currentColor">
  <path d="M21.211 6c-12.632 0-20.211 10.133-20.211 15.2s2.526 8.867 7.579 8.867 7.58 1.266 7.58 5.066c0 5.066 3.789 8.866 8.842 8.866 16.422 0 24-8.866 24-17.732-.001-15.2-12.635-20.267-27.79-20.267zm-3.158 5.067c1.744 0 3.158 1.418 3.158 3.166 0 1.75-1.414 3.167-3.158 3.167s-3.158-1.418-3.158-3.167c0-1.748 1.414-3.166 3.158-3.166zm10.104 0c1.744 0 3.158 1.418 3.158 3.166 0 1.75-1.414 3.167-3.158 3.167-1.743 0-3.157-1.418-3.157-3.167 0-1.748 1.414-3.166 3.157-3.166zm10.106 5.066c1.745 0 3.159 1.417 3.159 3.167 0 1.75-1.414 3.166-3.159 3.166-1.744 0-3.157-1.417-3.157-3.166-.001-1.749 1.413-3.167 3.157-3.167zm-29.052 2.534c1.744 0 3.157 1.417 3.157 3.165 0 1.75-1.414 3.167-3.157 3.167s-3.158-1.418-3.158-3.167c0-1.748 1.414-3.165 3.158-3.165zm15.789 12.666c2.093 0 3.789 1.7 3.789 3.801 0 2.098-1.696 3.799-3.789 3.799s-3.789-1.701-3.789-3.799c0-2.101 1.696-3.801 3.789-3.801z"></path>
</symbol>

<symbol id="star" viewBox="2 2.46 20.02 19.08" fill="currentColor">
  <path d="M22,10.1c0.1-0.5-0.3-1.1-0.8-1.1l-5.7-0.8L12.9,3c-0.1-0.2-0.2-0.3-0.4-0.4C12,2.3,11.4,2.5,11.1,3L8.6,8.2L2.9,9C2.6,9,2.4,9.1,2.3,9.3c-0.4,0.4-0.4,1,0,1.4l4.1,4l-1,5.7c0,0.2,0,0.4,0.1,0.6c0.3,0.5,0.9,0.7,1.4,0.4l5.1-2.7l5.1,2.7c0.1,0.1,0.3,0.1,0.5,0.1v0c0.1,0,0.1,0,0.2,0c0.5-0.1,0.9-0.6,0.8-1.2l-1-5.7l4.1-4C21.9,10.5,22,10.3,22,10.1z"></path>
</symbol>

<symbol id="tools" viewBox="12.02 3.99 48 47.95" fill="currentColor">
  <path class="cls-1" d="M13.32,44.31a4.5,4.5,0,0,0,6.36,6.36L34.44,35.91l-6.36-6.36Z"></path><polygon class="cls-1" points="50.2 16.96 56.63 13.63 60 7.13 56.86 3.99 50.36 7.36 47.03 13.78 39.21 21.61 42.38 24.79 50.2 16.96"></polygon><path class="cls-1" d="M51.61,34,51,34a8.9,8.9,0,0,0-3.11.58L29.45,16.09A8.9,8.9,0,0,0,30,13l-.06-.6A8.9,8.9,0,0,0,17.19,4.89l6,6a3,3,0,0,1,.68,1.08A3,3,0,0,1,21,16a2.92,2.92,0,0,1-1-.21,3.15,3.15,0,0,1-1.08-.67l-6-6a8.9,8.9,0,0,0,7.49,12.78L21,22a8.9,8.9,0,0,0,3.11-.58L42.6,39.84A8.9,8.9,0,0,0,42,43l.06.6A9,9,0,0,0,51,51.94a8.72,8.72,0,0,0,3.85-.9l-6-6A3.08,3.08,0,0,1,48.21,44,3,3,0,0,1,51,40a2.92,2.92,0,0,1,1,.21,2.72,2.72,0,0,1,1.08.67l6,6A8.9,8.9,0,0,0,51.61,34Z"></path>
</symbol>

<symbol id="code" viewBox="0 0 20 16" fill="currentColor">
  <path d="M12.7361611,0.063952038 C13.2551391,0.263360331 13.5227261,0.869148905 13.3338336,1.41701869 L8.54555162,15.3051026 C8.35665911,15.8529724 7.78281676,16.1354563 7.26383885,15.936048 C6.74486095,15.7366397 6.47727387,15.1308511 6.66616638,14.5829813 L11.4544484,0.694897379 C11.6433409,0.147027596 12.2171832,-0.135456255 12.7361611,0.063952038 Z M2.41421356,8.25614867 L5.94974747,11.9885083 C6.34027176,12.4007734 6.34027176,13.0691871 5.94974747,13.4814522 C5.55922318,13.8937173 4.9260582,13.8937173 4.53553391,13.4814522 L0.292893219,9.0026206 C-0.0976310729,8.59035554 -0.0976310729,7.9219418 0.292893219,7.50967674 L4.53553391,3.03084515 C4.9260582,2.61858008 5.55922318,2.61858008 5.94974747,3.03084515 C6.34027176,3.44311021 6.34027176,4.11152395 5.94974747,4.52378901 L2.41421356,8.25614867 Z M17.5857864,8.25614867 L14.0502525,4.52378901 C13.6597282,4.11152395 13.6597282,3.44311021 14.0502525,3.03084515 C14.4407768,2.61858008 15.0739418,2.61858008 15.4644661,3.03084515 L19.7071068,7.50967674 C20.0976311,7.9219418 20.0976311,8.59035554 19.7071068,9.0026206 L15.4644661,13.4814522 C15.0739418,13.8937173 14.4407768,13.8937173 14.0502525,13.4814522 C13.6597282,13.0691871 13.6597282,12.4007734 14.0502525,11.9885083 L17.5857864,8.25614867 Z"></path>
</symbol>

<symbol id="cloud" viewBox="1 3.01 14 8.99" fill="currentColor">
  <path fill-rule="evenodd" clip-rule="evenodd" d="M11.957 6h.05a2.99 2.99 0 0 1 2.116.879 3.003 3.003 0 0 1 0 4.242 2.99 2.99 0 0 1-2.117.879v-.013L12 12H4.523a3.486 3.486 0 0 1-2.628-1.16 3.502 3.502 0 0 1 1.958-5.78 3.462 3.462 0 0 1 1.468.04 3.486 3.486 0 0 1 3.657-2.06A3.479 3.479 0 0 1 11.957 6zM5 11h7.01a1.994 1.994 0 0 0 1.992-2 2.002 2.002 0 0 0-1.996-2h-.914l-.123-.857a2.49 2.49 0 0 0-2.126-2.122A2.478 2.478 0 0 0 6.231 5.5l-.333.762-.809-.189A2.49 2.49 0 0 0 4.523 6c-.662 0-1.297.263-1.764.732A2.503 2.503 0 0 0 4.523 11H5z"></path>
</symbol>

<symbol id="mail" viewBox="0 0 24 24"  >
  <path d="M3.84674576,17.8602756 C4.0442161,17.955959 4.26584099,18.0096122 4.49999728,18.0096122 L19.5,18.0096122 C19.734157,18.0096122 19.9557825,17.9559587 20.1532533,17.8602747 L14.2446247,12.2992125 L12.3178536,13.8859651 C12.1332257,14.0380116 11.8667743,14.0380116 11.6821464,13.8859651 L9.75537533,12.2992125 L3.84674576,17.8602756 L3.84674576,17.8602756 Z M3.1430925,17.1498223 C3.1477226,17.1451097 3.15246435,17.1404678 3.15731765,17.1359 L8.97720082,11.6583629 L3.18214637,6.88596512 C3.16950983,6.87555855 3.15751523,6.86466152 3.14616744,6.85332433 C3.05246763,7.04913384 2.99999728,7.26843937 2.99999728,7.5 L2.99999728,16.5096122 C2.99999728,16.7386275 3.05132045,16.9556556 3.1430925,17.1498223 L3.1430925,17.1498223 Z M20.8569057,17.1498204 C20.9486772,16.9556542 21,16.7386268 21,16.5096122 L21,7.5 C21,7.26844009 20.94753,7.04913522 20.8538307,6.85332617 C20.8424835,6.86466269 20.8304895,6.87555911 20.8178536,6.88596512 L15.0227992,11.6583629 L20.8426823,17.1359 C20.847535,17.1404672 20.8522762,17.1451085 20.8569057,17.1498204 L20.8569057,17.1498204 Z M20.1444281,6.14509696 C19.9491886,6.05206979 19.7306751,6 19.5,6 L4.49999728,6 C4.26932289,6 4.05080997,6.05206949 3.85557086,6.14509614 L12,12.8522731 L20.1444281,6.14509696 L20.1444281,6.14509696 Z M4.49999728,5 L19.5,5 C20.8807119,5 22,6.11928813 22,7.5 L22,16.5096122 C22,17.8903241 20.8807119,19.0096122 19.5,19.0096122 L4.49999728,19.0096122 C3.11928541,19.0096122 1.99999728,17.8903241 1.99999728,16.5096122 L1.99999728,7.5 C1.99999728,6.11928813 3.11928541,5 4.49999728,5 Z"/>
</symbol>



  
</svg>